<?xml version="1.0" encoding="UTF-8"?>
<!-- Created with Inkscape (http://www.inkscape.org/) -->
<svg width="300" height="125" version="1.1" viewBox="0 0 79.375 33.073" xmlns="http://www.w3.org/2000/svg">
 <g stroke-width=".26458">
  <path d="m79.793 32.553s-23.412 1.6092-33.37-3.2296c-2.719-1.3212-4.3483-4.2919-4.3282-6.499 0.02187-2.4055 1.507-4.3939 3.9719-5.2955 5.7709-2.1109 16.284-0.77969 21.451-2.9403 2.0666-0.86407 2.2663-3.4266 2.2663-5.5152 0-9.5415-41.768-9.1206-41.768-9.1206l52.338-0.65481z" fill="#30fdc6"/>
  <path d="m31.15 16.932-14.085 0.1341s-3.2411 0.13229-3.2411-1.5875c0-1.7198 4.9609-1.3891 4.9609-1.3891s-1.4552-3.5719 4.1672-3.9026 3.9026 4.0349 3.9026 4.0349 6.0854-1.5875 6.1516 1.5214c0.02536 1.1922-1.8565 1.1888-1.8565 1.1888z" fill="#30fdc6"/>
  <g fill="#fff">
   <path d="m36.248 10.98 0.8599 1.1906 1.1245-0.99219-0.92604-1.1906z"/>
   <path d="m4.2995 21.96 0.79375-0.8599 0.92604 0.99219-0.99219 0.7276z"/>
   <path d="m7.2099 23.746 0.79375-0.92604 0.99219 1.0583-0.99219 0.92604z"/>
  </g>
  <path d="m12.841 4.1909c-1.45-0.06223-1.5435 1.1927-1.5435 1.1927s-1.6574 0.12468-1.7423 0.52619c-0.07119 0.33684 1.8241 0.42095 1.8241 0.42095-0.20224 0.04667 0.69503 1.0282 1.5786 0.88867 0.92209-0.14566 1.1693-1.0407 1.1693-1.0407-6e-5 -2.57e-4 1.6763-0.12589 1.7189-0.5028 0.03688-0.32644-1.5084-0.42091-1.8358-0.43264 0 0-0.02067-1.0031-1.1693-1.0524z" fill="#bfd8ff"/>
 </g>
</svg>
