<?xml version="1.0" encoding="UTF-8"?>
<!-- Created with Inkscape (http://www.inkscape.org/) -->
<svg width="100" height="100" version="1.1" viewBox="0 0 26.458 26.458" xmlns="http://www.w3.org/2000/svg">
 <rect x="1.1102e-16" y="4.4409e-16" width="26.458" height="26.458" fill="#26213a" stroke-width="1.0707"/>
 <path d="m20.42 12.04c-2.0124 4.1594-4.709 5.2457-8.1482 5.2281-3.5632-0.01824-4.4723-4.0933-3.8972-5.0854-1.6031 0.71446-1.4888 7.115 4.5827 8.1629 3.6975 0.6382 6.9928-2.5874 6.9928-2.59l0.483 0.35415c-2.2113 2.864-5.3212 3.3245-7.2388 3.5215-1.9176 0.197-7.0308-2.4955-7.1805-5.9986-0.18813-4.4019 1.5717-5.3264 3.1821-6.3814 1.6104-1.055 8.5622-2.449 7.0203 5.0689 1.2107 0.09742 3.9428-5.5733-1.4771-8.6828-9.0021-3.4161-21.402 8.1787-18.419 8.6948l-1.2897-15.045c3.4191-2.7025 16.043-2.231 20.508 0.34783 4.4646 2.5789 6.8351 8.3667 4.8814 12.405z" color="#000000" color-rendering="auto" dominant-baseline="auto" fill="#fff" image-rendering="auto" solid-color="#000000" stop-color="#000000" stroke-width="1.1566" style="-inkscape-stroke:none;font-feature-settings:normal;font-variant-alternates:normal;font-variant-caps:normal;font-variant-east-asian:normal;font-variant-ligatures:normal;font-variant-numeric:normal;font-variant-position:normal;font-variation-settings:normal;inline-size:0;isolation:auto;mix-blend-mode:normal;shape-margin:0;shape-padding:0;text-decoration-color:#000000;text-decoration-line:none;text-decoration-style:solid;text-indent:0;text-orientation:mixed;text-transform:none;white-space:normal"/>
 <path d="m12.516 11.367-1.8114 2.3169 1.9799 2.0221 1.5166-2.1485z" fill="#d5b8ff" stroke-width=".17843"/>
</svg>
