<?xml version="1.0" encoding="UTF-8"?>
<!-- Created with Inkscape (http://www.inkscape.org/) -->
<svg width="100" height="100" version="1.1" viewBox="0 0 26.458 26.458" xmlns="http://www.w3.org/2000/svg">
 <path d="m13.258 20.381c-3.5514-0.07204-4.5784-3.371-3.2815-5.822-2.7858 0.9969-3.3068 7.4727 2.678 8.6425 2.4839 0.48456 3.3487 0.28017 4.68 0.2863l0.18665 0.88407c-1.8036 0.33628-2.4081 0.41629-4.602 0.26485-3.2023-0.22104-6.0761-2.2779-6.6833-6.0815-0.64912-4.0658 2.2545-6.603 4.7301-7.2507 2.1294-0.55714 8.1324 0.21186 5.0284 6.2566 1.8738 0.25796 6.1241-6.6666-0.01812-10.164-10.049-3.8135-23.892 9.1302-20.562 9.7064l-3.6473-19.587c2.7364-5.7019 17.114-3.4758 24.777 0.51815 7.6629 3.994 8.1158 13.063 6.171 16.839-1.9448 3.7765-5.5986 5.5324-9.4567 5.5074z" color="#000000" color-rendering="auto" dominant-baseline="auto" fill="#fff" image-rendering="auto" solid-color="#000000" stop-color="#000000" stroke-width="1.2912" style="-inkscape-stroke:none;font-feature-settings:normal;font-variant-alternates:normal;font-variant-caps:normal;font-variant-east-asian:normal;font-variant-ligatures:normal;font-variant-numeric:normal;font-variant-position:normal;font-variation-settings:normal;inline-size:0;isolation:auto;mix-blend-mode:normal;shape-margin:0;shape-padding:0;text-decoration-color:#000000;text-decoration-line:none;text-decoration-style:solid;text-indent:0;text-orientation:mixed;text-transform:none;white-space:normal"/>
 <path d="m13.247 13.753-1.8114 2.3169 1.9799 2.0221 1.5166-2.1485z" fill="#d5b8ff" stroke-width=".17843"/>
</svg>
